<?xml version="1.0" standalone="no"?>
<!DOCTYPE svg PUBLIC "-//W3C//DTD SVG 20010904//EN"
 "http://www.w3.org/TR/2001/REC-SVG-20010904/DTD/svg10.dtd">
<svg version="1.0" xmlns="http://www.w3.org/2000/svg"
 width="1024.000000pt" height="1024.000000pt" viewBox="0 0 1024.000000 1024.000000"
 preserveAspectRatio="xMidYMid meet">
<metadata>
Created by potrace 1.16, written by Peter Selinger 2001-2019
</metadata>
<g transform="translate(0.000000,1024.000000) scale(0.100000,-0.100000)"
fill="#007ec6" stroke="none">
<path d="M0 8024 l0 -2216 27 18 c16 9 33 24 39 32 8 11 10 7 8 -17 -1 -17 2
-31 7 -31 4 0 6 -7 3 -15 -4 -8 -1 -15 5 -15 6 0 11 9 11 19 0 11 5 23 12 27
6 4 8 3 4 -4 -10 -17 10 -23 24 -7 10 12 10 15 0 15 -10 0 -10 3 0 15 7 8 8
15 3 15 -5 0 -9 10 -10 23 -2 22 -2 22 12 -2 7 -14 11 -31 8 -38 -3 -7 0 -13
7 -13 6 0 9 -4 6 -8 -3 -5 1 -9 9 -9 11 0 12 5 4 20 -14 25 -4 33 18 16 16
-13 17 -12 4 3 -11 15 -11 19 2 24 9 3 18 12 21 20 4 10 2 13 -7 7 -26 -16
-37 -12 -25 10 15 29 34 47 42 40 3 -4 6 0 6 7 0 7 3 10 7 6 4 -4 -3 -16 -17
-27 -14 -11 -18 -18 -10 -17 8 2 21 9 28 16 8 7 19 9 25 5 7 -3 9 -3 5 2 -4 4
-2 15 5 24 11 14 10 14 -5 2 -16 -12 -18 -11 -18 3 0 9 8 16 21 16 11 0 17 5
14 10 -4 6 -11 7 -17 4 -7 -5 -8 -2 -4 5 5 7 11 10 14 6 3 -3 12 7 19 22 7 16
11 19 8 8 -4 -18 -4 -18 7 -4 7 9 20 14 28 11 8 -3 12 -1 8 3 -4 5 -3 14 3 22
6 7 8 13 3 13 -5 1 2 8 16 16 15 9 18 13 6 9 -16 -5 -17 -3 -6 10 7 8 16 13
20 10 5 -3 11 4 15 14 4 13 12 18 23 15 15 -5 15 -4 2 5 -13 10 -13 12 0 21 8
5 11 10 5 10 -12 1 26 24 39 25 5 0 11 6 14 13 2 8 -3 10 -15 6 -17 -5 -17 -5
0 9 9 8 17 17 17 21 0 17 30 36 47 30 14 -5 15 -4 3 4 -12 9 -12 14 0 36 7 14
15 24 18 21 3 -2 0 -11 -7 -19 -9 -11 -8 -15 4 -19 8 -4 14 -3 14 1 -1 4 -1
16 0 27 1 17 3 18 11 5 8 -12 10 -11 10 7 0 12 5 25 11 29 8 4 7 9 -2 15 -11
7 -11 9 -1 9 7 0 10 5 6 12 -4 6 -3 8 4 4 6 -3 14 -1 17 5 4 5 13 8 21 5 7 -3
16 0 20 6 4 6 3 8 -2 5 -6 -3 -16 -2 -24 4 -12 7 -10 9 8 9 12 0 22 4 22 10 0
11 24 42 56 74 12 12 20 29 18 38 -1 10 6 20 17 23 11 4 16 11 12 18 -4 8 -1
7 9 -1 11 -9 18 -10 23 -2 3 5 1 10 -5 10 -18 0 0 20 27 31 13 5 21 13 18 19
-3 5 -1 10 4 10 6 0 11 7 11 15 0 15 11 19 39 15 9 -1 12 5 8 19 -3 12 -2 19
2 16 5 -2 18 7 29 20 12 14 26 25 32 25 5 0 10 7 10 15 0 8 6 12 14 9 8 -3 16
4 19 17 4 15 11 20 23 15 15 -6 15 -4 3 10 -12 15 -11 16 9 10 13 -5 21 -4 20
2 -2 6 14 22 35 36 21 15 36 22 32 16 -11 -17 1 -11 21 12 12 14 14 19 4 13
-8 -4 0 6 19 24 19 17 39 31 43 31 5 0 7 4 4 8 -3 5 8 8 25 7 23 -1 33 4 44
24 8 14 14 22 15 17 0 -6 7 -1 16 10 8 10 13 13 9 7 -9 -19 10 -16 26 4 12 15
12 16 -1 8 -9 -5 -12 -5 -7 1 5 5 13 10 18 10 5 1 14 2 20 3 5 0 7 6 3 13 -4
6 -3 8 4 4 6 -3 16 0 24 7 7 8 18 12 25 10 6 -2 23 3 36 11 13 9 27 13 32 9 4
-5 4 -2 0 6 -6 11 -4 13 8 8 20 -8 22 4 5 22 -11 11 -10 12 1 6 8 -4 17 -2 23
6 8 11 9 10 4 -3 -3 -10 0 -20 6 -24 6 -4 8 -3 5 2 -3 5 3 21 14 34 10 14 19
20 19 13 0 -12 13 -11 43 2 14 6 15 10 5 24 -10 12 -8 12 8 -2 21 -17 22 -17
26 1 4 15 12 19 34 15 23 -4 26 -2 14 6 -12 9 -10 11 12 11 15 0 33 7 42 15 8
9 18 16 21 15 33 -2 55 2 51 9 -3 4 6 6 21 3 19 -4 24 -2 18 8 -6 9 -3 10 14
1 17 -10 22 -9 27 4 4 10 13 13 26 9 11 -3 18 -2 15 2 -3 5 11 10 31 12 20 1
47 9 60 18 18 12 22 12 16 3 -6 -12 -5 -12 8 -1 12 9 18 10 23 2 5 -8 11 -5
21 7 7 10 14 13 14 6 0 -7 9 -10 23 -7 40 10 102 9 109 -1 5 -6 8 -7 8 0 0 11
144 11 215 1 30 -4 36 -3 25 5 -11 8 -8 9 15 4 16 -4 33 -12 37 -18 6 -9 11
-8 18 3 5 8 10 10 10 5 0 -12 7 -13 89 -19 29 -2 57 -10 61 -16 4 -7 13 -9 19
-6 6 4 11 2 11 -3 0 -6 7 -11 15 -11 8 0 15 -4 15 -10 0 -5 7 -6 17 -3 10 4
14 2 10 -4 -3 -5 0 -10 8 -10 8 0 12 4 9 9 -3 4 2 5 10 2 9 -3 13 -11 9 -17
-4 -6 0 -8 10 -4 10 4 20 0 26 -11 6 -9 11 -12 11 -6 0 6 13 9 30 6 16 -2 27
-8 24 -13 -3 -5 -10 -6 -16 -3 -7 4 -8 2 -4 -4 4 -6 14 -8 23 -5 12 5 14 3 8
-7 -6 -10 -3 -12 13 -8 13 4 20 2 16 -3 -3 -6 5 -7 22 -3 17 4 25 3 21 -3 -6
-9 33 -34 58 -38 25 -3 46 -19 41 -30 -2 -7 1 -12 7 -12 7 1 31 -7 55 -17 30
-13 42 -24 42 -40 0 -15 3 -17 9 -7 7 10 11 9 23 -8 8 -11 18 -18 21 -14 4 3
7 1 7 -5 0 -7 6 -12 13 -12 17 0 59 -44 50 -53 -3 -4 0 -7 8 -7 14 0 54 -28
91 -62 10 -10 22 -18 28 -18 5 0 7 -7 4 -15 -4 -8 -1 -15 6 -15 6 0 8 -5 5
-10 -3 -6 -2 -10 4 -10 6 0 7 -8 4 -17 -6 -15 -4 -16 8 -6 13 11 19 6 38 -27
22 -40 35 -53 25 -25 -4 8 -1 15 6 15 6 0 9 -4 5 -10 -3 -5 3 -18 13 -28 10
-10 22 -26 25 -36 4 -9 11 -15 16 -11 5 3 13 0 17 -6 4 -8 3 -9 -4 -5 -7 4
-12 2 -12 -3 0 -6 9 -16 20 -23 11 -7 20 -18 20 -25 0 -7 7 -13 16 -13 10 0
14 -6 10 -15 -3 -8 -1 -15 5 -15 6 0 8 -4 4 -9 -3 -5 3 -12 14 -16 10 -3 18
-11 18 -18 -1 -39 5 -57 19 -57 8 0 12 -4 9 -10 -3 -5 -2 -10 2 -10 5 0 9 -10
10 -22 1 -12 9 -26 18 -31 13 -7 14 -12 4 -23 -10 -12 -10 -15 2 -12 8 2 13
-3 12 -9 -2 -7 1 -13 7 -13 5 0 7 -7 4 -15 -4 -8 -2 -21 4 -28 5 -6 13 -30 17
-52 4 -22 12 -49 18 -60 6 -11 10 -24 9 -29 -2 -4 3 -14 9 -22 6 -8 8 -14 3
-14 -4 0 -3 -5 4 -12 14 -14 16 -32 2 -23 -5 3 -3 -9 4 -27 7 -18 11 -39 8
-47 -2 -8 -1 -11 4 -8 5 3 9 -15 10 -39 0 -26 -4 -44 -10 -44 -6 0 -5 -4 3 -9
8 -5 12 -18 8 -30 -3 -12 -1 -19 4 -15 5 3 9 0 9 -5 0 -6 -5 -11 -12 -11 -9 0
-9 -3 0 -12 8 -8 9 -15 1 -25 -7 -7 -8 -13 -3 -13 5 0 10 -19 11 -43 1 -38 8
-82 14 -82 1 0 3 -10 4 -22 1 -12 -2 -20 -6 -17 -5 3 -9 -1 -9 -8 -2 -52 -9
-137 -14 -156 -3 -12 -1 -20 4 -17 5 3 5 -7 0 -25 -5 -17 -5 -32 1 -35 5 -4 9
-12 9 -18 0 -8 -3 -7 -9 2 -5 7 -14 10 -20 7 -13 -9 -15 -33 -2 -40 5 -4 8 2
7 11 -2 10 -1 13 1 6 2 -7 12 -9 20 -6 11 4 9 -1 -6 -16 -18 -18 -22 -32 -20
-74 2 -62 -18 -259 -32 -302 l-9 -30 4 31 c67 468 -23 883 -272 1259 -81 122
-272 317 -387 397 -80 56 -235 144 -235 135 0 -3 30 -22 68 -43 208 -115 411
-297 530 -476 45 -68 49 -98 11 -77 -33 17 -31 5 2 -13 17 -10 27 -14 24 -8
-3 5 -1 11 4 15 6 3 15 -4 21 -15 9 -17 8 -20 -8 -20 -10 0 -23 5 -29 11 -8 8
-17 6 -34 -10 -23 -21 -40 -27 -38 -13 3 18 -2 35 -8 29 -3 -4 -12 -2 -20 5
-11 8 -17 7 -28 -8 -8 -10 -15 -28 -15 -39 -1 -15 -3 -16 -7 -5 -3 8 -13 19
-22 24 -13 8 -13 10 4 17 16 6 17 8 3 8 -9 1 -20 -3 -23 -9 -3 -5 -13 -10 -21
-10 -8 0 -12 5 -9 10 4 6 1 9 -7 8 -7 -2 -12 3 -10 10 1 6 -2 12 -8 12 -14 0
-12 -9 8 -34 9 -12 27 -21 40 -20 12 1 22 -3 22 -7 0 -16 -51 -13 -61 3 -4 7
-9 6 -13 -1 -4 -6 -14 -11 -22 -11 -8 0 -12 5 -9 10 4 6 10 8 14 6 4 -3 8 1 8
9 0 8 -4 12 -8 9 -4 -2 -15 6 -23 18 -9 12 -16 19 -16 14 0 -5 -8 -2 -17 5
-15 11 -16 11 -6 -1 9 -9 9 -19 2 -34 -9 -18 -8 -19 3 -5 7 9 19 14 26 12 13
-5 17 -24 5 -22 -21 3 -24 -3 -12 -18 9 -11 3 -10 -18 6 -18 12 -39 19 -45 16
-7 -4 -2 3 12 14 14 11 19 21 12 21 -8 0 -10 5 -6 13 4 6 -4 1 -18 -13 -13
-14 -22 -29 -20 -34 3 -5 0 -6 -7 -2 -6 4 -9 11 -6 16 10 16 -13 20 -25 5 -14
-17 -30 -20 -30 -4 0 5 5 7 10 4 6 -3 10 -3 11 2 0 4 2 16 4 26 2 9 -5 22 -16
27 -13 7 -19 7 -19 0 0 -5 8 -10 17 -10 9 0 14 -3 10 -6 -9 -9 -48 6 -46 19 3
23 -1 37 -10 37 -5 0 -7 -10 -4 -21 4 -16 2 -20 -8 -17 -8 3 -19 -2 -25 -10
-9 -13 -14 -12 -32 6 -23 23 -36 16 -26 -15 4 -14 1 -13 -12 5 -16 21 -41 32
-29 12 4 -6 -7 -8 -27 -5 -34 6 -43 6 -78 3 -20 -2 -29 -18 -10 -18 6 0 10 -7
10 -16 0 -13 -4 -11 -18 7 -15 17 -21 19 -27 9 -6 -9 -4 -11 5 -5 9 5 11 4 6
-4 -4 -6 -11 -9 -16 -6 -4 3 -11 -1 -14 -7 -3 -7 -4 1 -2 17 2 19 8 29 17 27
11 -3 11 -1 3 8 -8 8 -18 9 -30 2 -11 -5 -26 -8 -34 -6 -8 2 -3 -2 12 -9 15
-7 24 -17 20 -23 -10 -15 -42 -25 -42 -14 0 6 -8 10 -17 10 -15 0 -16 2 -3 10
13 8 12 10 -4 10 -12 0 -16 -5 -12 -15 3 -8 1 -15 -3 -15 -5 0 -18 -3 -28 -7
-10 -3 -15 -3 -11 2 10 10 -11 37 -23 29 -5 -3 -9 -1 -9 4 0 6 -6 12 -14 15
-9 4 -13 0 -12 -11 2 -9 8 -18 14 -18 7 -1 16 -2 21 -3 5 0 14 -16 20 -33 10
-30 9 -31 -4 -14 -8 11 -15 23 -15 28 0 4 -5 8 -11 8 -6 0 -8 -9 -4 -21 6 -19
5 -20 -8 -8 -8 8 -13 17 -10 21 2 4 -3 5 -12 2 -12 -5 -15 -1 -11 18 2 13 -2
32 -10 43 -8 10 -14 14 -14 8 0 -7 5 -15 12 -19 7 -5 5 -11 -7 -21 -25 -18
-52 -16 -59 4 -5 12 -10 13 -18 5 -8 -8 -15 -9 -25 -1 -14 12 -18 33 -5 25 5
-3 9 1 9 9 0 8 -6 16 -13 19 -9 3 -11 -1 -8 -12 5 -14 3 -13 -10 2 -18 22 -21
40 -6 31 6 -3 10 -1 10 5 0 7 -7 10 -15 6 -13 -5 -39 25 -40 47 0 4 -3 6 -6 5
-3 -2 -27 21 -53 51 -66 74 -103 104 -118 95 -7 -4 -29 -20 -49 -35 -20 -16
-40 -25 -44 -21 -5 4 -6 0 -3 -8 3 -9 -13 -35 -39 -65 -25 -28 -38 -38 -29
-24 19 30 12 43 -15 28 -15 -8 -17 -14 -9 -35 13 -33 13 -33 -9 -27 -25 6 -36
-14 -19 -34 10 -13 10 -15 0 -9 -7 4 -19 2 -27 -4 -12 -10 -16 -9 -21 3 -3 9
-3 20 0 26 4 5 3 12 -2 15 -5 3 -9 -1 -10 -9 -1 -8 -3 -21 -4 -29 -1 -8 -7
-12 -15 -9 -11 4 -11 8 -1 21 11 13 11 14 -1 7 -11 -6 -13 -2 -9 18 3 15 1 24
-3 21 -5 -3 -9 -13 -9 -23 0 -10 -7 -24 -15 -31 -8 -7 -15 -22 -15 -34 -1 -19
-2 -18 -16 7 -15 28 -40 38 -30 11 3 -9 2 -12 -5 -8 -6 3 -9 15 -6 25 7 27
-17 24 -32 -3 -6 -13 -10 -15 -7 -6 3 9 -2 19 -10 22 -9 3 -12 11 -8 17 4 8 3
9 -4 5 -7 -4 -10 -17 -6 -30 4 -17 1 -23 -11 -23 -9 0 -14 6 -11 12 2 7 0 18
-6 26 -8 12 -9 11 -5 -1 3 -9 -1 -24 -9 -35 -8 -10 -14 -13 -14 -6 0 7 -4 10
-9 7 -8 -6 -25 30 -22 47 1 5 -3 6 -8 2 -10 -6 -5 -31 10 -51 5 -6 5 -15 1
-19 -4 -5 -2 -5 4 -2 17 10 39 -19 23 -29 -7 -4 -9 -3 -5 4 3 6 2 13 -4 17 -5
3 -10 -2 -10 -11 0 -16 -1 -16 -16 2 -8 10 -13 13 -9 7 7 -15 -11 -18 -20 -3
-3 6 1 13 9 16 16 6 12 24 -5 24 -6 0 -8 -3 -5 -8 2 -4 -3 -16 -11 -27 -15
-20 -15 -20 -10 3 4 15 1 22 -10 22 -13 0 -13 3 -3 15 7 9 10 18 6 22 -3 3 -6
1 -6 -6 0 -7 -4 -10 -9 -6 -11 6 -25 -30 -17 -43 2 -4 -7 -7 -22 -6 -14 0 -27
7 -29 15 -2 9 -1 10 3 2 4 -10 9 -10 20 1 19 20 18 22 -13 23 -16 1 -37 3 -48
6 -11 3 -23 6 -27 6 -5 1 -8 7 -8 15 0 8 -4 17 -9 20 -11 7 -9 -13 2 -31 5 -8
3 -13 -3 -13 -6 0 -8 -5 -5 -10 5 -8 11 -7 21 1 11 9 15 8 20 -5 3 -9 14 -16
23 -16 14 0 14 -2 1 -10 -10 -6 -17 -5 -23 5 -4 8 -13 15 -19 15 -7 0 -7 -4 1
-14 9 -10 8 -15 -3 -19 -17 -7 -41 17 -32 32 9 14 -39 44 -61 39 -13 -3 -17
-11 -15 -32 2 -17 -1 -25 -7 -21 -6 3 -11 15 -11 25 0 13 -5 18 -15 14 -12 -5
-13 -10 -4 -20 9 -11 9 -14 0 -14 -7 0 -9 -4 -6 -10 3 -6 -1 -7 -9 -4 -9 3
-13 10 -10 15 3 5 2 9 -3 8 -4 -1 -15 -1 -23 1 -11 1 -9 4 5 10 16 7 17 9 3 9
-22 1 -33 -18 -15 -25 17 -6 18 -31 1 -31 -7 0 -11 4 -8 9 3 4 1 8 -5 8 -5 0
-12 -6 -14 -12 -4 -10 -8 -9 -17 2 -10 13 -11 13 -7 -1 3 -9 1 -22 -4 -30 -7
-11 -9 -10 -9 4 0 12 -4 16 -12 11 -17 -11 -48 -13 -42 -3 2 4 0 10 -6 14 -6
3 -11 -4 -11 -17 -1 -17 -3 -18 -6 -5 -2 9 -9 14 -15 11 -6 -4 -14 -1 -18 6
-7 11 -12 10 -24 -3 -15 -15 -15 -17 1 -26 10 -6 14 -11 10 -11 -15 0 -66 43
-61 52 7 11 -10 10 -22 -2 -6 -6 -15 -5 -24 1 -11 8 -12 12 -2 16 17 7 15 30
-3 30 -8 0 -12 -4 -10 -8 8 -13 -7 -39 -22 -39 -10 0 -12 6 -8 21 5 14 3 19
-3 15 -13 -8 -25 10 -16 25 4 8 9 7 15 -2 6 -10 9 -6 9 12 0 28 22 54 35 41 5
-4 5 -2 2 4 -8 15 22 56 35 48 6 -4 8 -2 4 4 -11 18 98 128 229 230 110 86
278 178 423 232 42 16 71 29 64 30 -24 0 -197 -71 -282 -117 -422 -227 -723
-634 -819 -1103 -58 -283 -49 -581 24 -835 13 -44 22 -81 20 -83 -13 -13 -85
295 -85 361 0 28 -4 35 -17 32 -29 -6 -29 -6 -8 -15 19 -8 19 -9 -3 -9 -13 -1
-20 -5 -17 -11 4 -6 10 -8 15 -5 5 3 11 1 14 -4 7 -11 -13 -9 -32 3 -7 4 -19
2 -27 -4 -12 -10 -18 -10 -29 -1 -11 9 -20 9 -35 2 -16 -9 -22 -8 -30 6 -6 10
-11 12 -11 6 0 -7 -8 -13 -19 -13 -13 0 -18 6 -16 24 2 18 -1 23 -11 19 -8 -3
-11 -9 -8 -14 10 -16 -9 -9 -22 9 -8 10 -13 12 -14 5 0 -7 -5 -13 -11 -13 -8
0 -7 5 1 15 10 12 10 19 2 27 -9 9 -12 9 -12 1 0 -6 -8 -10 -17 -9 -10 2 -21
-2 -25 -8 -4 -6 -6 -1 -5 11 0 12 5 19 9 17 4 -3 5 2 2 10 -3 9 -10 13 -15 10
-13 -8 -11 10 4 26 6 8 2 6 -10 -4 -13 -10 -20 -23 -16 -29 3 -6 1 -7 -5 -3
-9 5 -9 12 0 26 9 14 9 22 -1 34 -7 9 -17 14 -21 11 -5 -3 -11 -1 -15 5 -3 6
4 11 17 11 13 1 16 3 8 5 -9 3 -20 14 -25 27 -6 12 -25 26 -42 31 -18 5 -33
13 -33 18 0 5 4 7 9 4 5 -3 11 1 14 9 4 9 1 12 -7 9 -16 -6 -29 58 -14 67 5 3
3 9 -5 12 -11 4 -14 -1 -12 -18 1 -14 -1 -22 -6 -20 -4 3 -10 1 -14 -5 -9 -15
-38 -13 -29 3 5 9 4 9 -6 1 -6 -7 -13 -24 -13 -38 -2 -29 -12 -34 -20 -12 -3
8 -1 17 6 19 8 3 6 11 -8 26 -16 18 -17 25 -7 42 10 16 10 19 -3 19 -13 0 -15
-11 -13 -59 2 -32 6 -57 11 -54 4 2 7 -1 7 -6 0 -6 7 -11 16 -11 8 0 12 -5 8
-11 -4 -8 -9 -8 -17 0 -6 6 -15 11 -19 11 -4 0 -8 -1208 -8 -2685 l0 -2685
5120 0 5120 0 0 5120 0 5120 -5120 0 -5120 0 0 -2216z m2349 -1576 c135 -142
224 -306 277 -508 45 -173 29 -392 -39 -527 -55 -107 -206 -273 -284 -311 -31
-15 -34 -14 -73 13 -71 49 -194 178 -233 245 -21 36 -50 101 -64 145 -25 74
-27 92 -27 235 1 138 4 165 28 245 32 109 99 247 158 333 53 74 165 192 184
192 7 0 40 -28 73 -62z m-941 -163 c-3 -3 -9 2 -12 12 -6 14 -5 15 5 6 7 -7
10 -15 7 -18z m-478 -29 c-7 -9 -16 -14 -20 -11 -5 3 -11 -4 -15 -15 -3 -11
-11 -20 -16 -20 -5 0 3 18 17 40 18 27 31 37 37 31 7 -7 6 -15 -3 -25z m3005
24 c-4 -6 -1 -19 6 -28 12 -16 12 -16 -5 0 -16 14 -15 38 0 38 3 0 2 -5 -1
-10z m-982 -45 c-3 -9 -8 -14 -10 -11 -3 3 -2 9 2 15 9 16 15 13 8 -4z m-2006
-17 c-3 -8 -6 -5 -6 6 -1 11 2 17 5 13 3 -3 4 -12 1 -19z m2059 6 c-5 16 -4
17 9 6 8 -7 15 -9 15 -4 0 5 4 2 10 -6 6 -9 5 -17 -3 -22 -6 -4 -15 -2 -19 5
-5 8 -8 6 -8 -5 0 -10 -5 -18 -11 -18 -5 0 -7 5 -4 10 3 6 3 15 -1 21 -4 8
-11 3 -20 -12 -13 -24 -13 -24 -9 6 2 17 4 32 4 34 1 2 11 -4 23 -15 21 -19
21 -19 14 0z m154 8 c0 -5 -7 -9 -15 -9 -8 0 -12 4 -9 9 3 4 9 8 15 8 5 0 9
-4 9 -8z m-1876 -10 c3 -5 -1 -9 -9 -9 -8 0 -15 4 -15 9 0 4 4 8 9 8 6 0 12
-4 15 -8z m1819 -11 c3 -14 0 -17 -14 -14 -14 4 -15 8 -6 19 15 17 14 17 20
-5z m-302 -27 c5 -15 3 -21 -7 -21 -8 0 -13 6 -10 12 2 6 -2 12 -10 12 -9 0
-13 -6 -9 -16 5 -13 4 -13 -6 -4 -10 10 -9 16 1 28 16 19 31 15 41 -11z m389
22 c0 -3 -4 -8 -10 -11 -5 -3 -10 -1 -10 4 0 6 5 11 10 11 6 0 10 -2 10 -4z
m360 -16 c0 -5 -5 -10 -11 -10 -5 0 -7 5 -4 10 3 6 8 10 11 10 2 0 4 -4 4 -10z
m-3140 -20 c0 -5 -5 -10 -11 -10 -5 0 -7 5 -4 10 3 6 8 10 11 10 2 0 4 -4 4
-10z m2230 -25 c5 3 11 2 14 -3 2 -4 -6 -8 -18 -8 -18 0 -22 4 -17 21 4 17 6
18 9 2 2 -9 7 -15 12 -12z m1030 11 c-10 -13 -40 -12 -40 1 0 3 7 3 15 0 8 -4
17 -2 20 3 4 6 9 10 12 10 3 0 0 -6 -7 -14z m-1071 -51 c0 -5 -6 1 -14 15 -8
14 -14 30 -14 35 0 6 6 -1 14 -15 8 -14 14 -29 14 -35z m481 45 c0 -13 -11
-13 -30 0 -12 8 -11 10 8 10 12 0 22 -4 22 -10z m647 -17 c12 -18 12 -21 0
-26 -11 -4 -13 0 -10 14 4 13 0 19 -12 19 -13 0 -16 -6 -12 -21 4 -15 3 -19
-5 -11 -12 12 0 54 14 50 6 -2 17 -13 25 -25z m-572 -2 c-15 -13 -93 -22 -100
-11 -3 5 0 8 7 5 7 -2 29 0 48 4 49 12 56 13 45 2z m465 -1 c0 -5 -2 -10 -4
-10 -3 0 -8 5 -11 10 -3 6 -1 10 4 10 6 0 11 -4 11 -10z m-2080 -52 c103 -32
226 -99 286 -156 18 -18 20 -26 13 -69 -20 -121 -4 -279 40 -406 38 -110 130
-239 225 -317 l49 -41 -44 7 c-140 21 -285 75 -389 145 -86 57 -201 184 -253
280 -70 128 -88 205 -94 390 -6 189 -2 204 60 194 23 -4 71 -16 107 -27z
m1633 -14 c5 -21 6 -100 4 -174 -6 -159 -28 -247 -88 -359 -124 -231 -315
-369 -589 -425 -41 -8 -75 -14 -77 -13 -1 2 35 41 80 88 95 99 146 181 185
294 25 76 27 90 27 266 l-1 186 40 29 c58 42 128 81 187 104 49 20 194 51 214
46 5 -1 13 -20 18 -42z m-566 4 c-3 -8 -6 -5 -6 6 -1 11 2 17 5 13 3 -3 4 -12
1 -19z m1407 -463 c-4 -8 -8 -15 -10 -15 -2 0 -4 7 -4 15 0 8 4 15 10 15 5 0
7 -7 4 -15z m-7 -67 c-3 -8 -6 -5 -6 6 -1 11 2 17 5 13 3 -3 4 -12 1 -19z
m-3892 -129 c-5 -15 -4 -19 5 -14 9 6 9 3 1 -14 -11 -20 -8 -26 13 -22 5 1 4
-4 -2 -12 -7 -8 -8 -18 -4 -22 4 -5 1 -5 -6 -1 -7 4 -10 11 -7 16 3 5 1 11 -4
15 -8 4 -9 24 -2 68 0 4 4 7 7 7 3 0 2 -10 -1 -21z m1375 -53 c108 -141 310
-263 511 -310 35 -8 78 -18 94 -21 l30 -7 -28 -14 c-74 -39 -188 -58 -357 -58
-162 -1 -167 0 -259 32 -123 43 -211 95 -206 122 3 13 -2 20 -12 20 -13 0 -13
-3 -3 -15 7 -8 8 -15 3 -15 -29 0 -213 225 -213 261 0 4 17 13 38 20 78 26
150 37 253 38 l107 1 42 -54z m1920 30 c66 -17 90 -26 90 -35 -2 -18 -50 -96
-89 -143 -71 -84 -149 -147 -236 -188 -112 -54 -181 -70 -325 -77 -138 -6
-253 10 -356 49 -60 23 -58 31 15 43 61 10 199 58 275 95 86 43 210 143 271
219 l50 63 125 -6 c69 -3 150 -12 180 -20z m-3343 -8 c-3 -8 -6 -5 -6 6 -1 11
2 17 5 13 3 -3 4 -12 1 -19z m3916 -28 c3 -11 1 -23 -4 -26 -5 -3 -9 6 -9 20
0 31 6 34 13 6z m-3818 -11 c-4 -5 -1 -9 4 -9 6 0 11 5 11 11 0 5 5 7 10 4 15
-9 12 -25 -5 -25 -9 0 -15 -6 -13 -13 3 -14 -3 -17 -34 -16 -22 0 -22 1 2 10
17 7 21 12 12 18 -7 4 -10 15 -6 24 3 9 10 14 15 11 5 -3 7 -10 4 -15z m-90
-39 c3 -5 1 -10 -4 -10 -6 0 -11 5 -11 10 0 6 2 10 4 10 3 0 8 -4 11 -10z
m135 -30 c0 -5 -4 -10 -10 -10 -5 0 -10 5 -10 10 0 6 5 10 10 10 6 0 10 -4 10
-10z m30 -11 c0 -5 -4 -9 -8 -9 -5 0 -9 7 -9 15 0 8 4 12 9 9 4 -3 8 -9 8 -15z
m330 -169 c0 -5 -7 -7 -15 -4 -8 4 -12 10 -9 15 6 11 24 2 24 -11z m3347 -132
c-3 -7 -5 -2 -5 12 0 14 2 19 5 13 2 -7 2 -19 0 -25z m-10 -40 c-3 -8 -6 -5
-6 6 -1 11 2 17 5 13 3 -3 4 -12 1 -19z m-10 -40 c-3 -8 -6 -5 -6 6 -1 11 2
17 5 13 3 -3 4 -12 1 -19z m-27 -93 c-12 -36 -24 -65 -26 -63 -2 2 6 34 18 71
12 36 24 65 26 62 2 -2 -6 -34 -18 -70z m-1475 30 c-5 -2 -22 -6 -37 -9 -16
-4 -28 -13 -28 -21 0 -7 -4 -17 -10 -20 -18 -11 -11 14 10 35 11 11 32 20 48
19 15 0 23 -2 17 -4z m29 -89 c-10 -31 -19 -54 -22 -52 -2 3 4 28 13 56 14 42
15 54 4 68 -12 16 -12 16 5 1 17 -16 17 -19 0 -73z m-514 37 c-8 -3 -26 -15
-40 -27 l-25 -21 24 28 c14 15 32 27 40 26 14 0 14 -1 1 -6z m55 -13 c30 -33
11 -66 -103 -180 -59 -58 -107 -105 -107 -104 0 2 41 45 91 96 131 135 141
151 104 188 -11 11 -16 20 -12 20 5 0 17 -9 27 -20z m623 0 c-7 -10 -14 -17
-17 -15 -4 4 18 35 25 35 2 0 -1 -9 -8 -20z m155 -72 c51 -51 83 -86 72 -78
-11 8 -45 40 -75 70 -30 30 -68 65 -84 78 -16 12 -23 22 -17 22 7 0 54 -41
104 -92z m-114 -43 c41 -45 40 -44 -11 6 -32 31 -58 63 -58 71 0 7 5 4 12 -7
6 -11 31 -43 57 -70z m-789 72 c0 -1 -48 -50 -107 -107 l-108 -105 105 108
c97 99 110 112 110 104z m-1100 -42 c0 -5 -5 -3 -10 5 -5 8 -10 20 -10 25 0 6
5 3 10 -5 5 -8 10 -19 10 -25z m1540 -12 c-11 -17 -11 -17 -6 0 3 10 6 24 7
30 0 9 2 9 5 0 3 -7 0 -20 -6 -30z m111 -24 c-5 -13 -10 -19 -10 -12 -1 15 10
45 15 40 3 -2 0 -15 -5 -28z m-1633 -4 c-3 -3 -9 2 -12 12 -6 14 -5 15 5 6 7
-7 10 -15 7 -18z m1613 -56 c-5 -13 -10 -19 -10 -12 -1 15 10 45 15 40 3 -2 0
-15 -5 -28z m339 -14 c7 -8 10 -15 7 -15 -2 0 -10 7 -17 15 -7 8 -10 15 -7 15
2 0 10 -7 17 -15z m185 -35 c21 -22 37 -40 34 -40 -3 0 -23 18 -44 40 -21 22
-37 40 -34 40 3 0 23 -18 44 -40z m-544 -7 c-12 -20 -14 -14 -5 12 4 9 9 14
11 11 3 -2 0 -13 -6 -23z m414 -13 c16 -16 26 -30 24 -30 -3 0 -18 14 -34 30
-16 17 -26 30 -24 30 3 0 18 -13 34 -30z m-1935 -10 c6 -11 8 -20 6 -20 -3 0
-10 9 -16 20 -6 11 -8 20 -6 20 3 0 10 -9 16 -20z m800 -4 c0 -2 -8 -10 -17
-17 -16 -13 -17 -12 -4 4 13 16 21 21 21 13z m1160 -49 c0 -2 -12 -14 -27 -28
l-28 -24 24 28 c23 25 31 32 31 24z m-1040 -152 c74 -74 132 -135 130 -135 -3
0 -66 61 -140 135 -74 74 -132 135 -130 135 3 0 66 -61 140 -135z m1180 132
c0 -1 -39 -41 -87 -87 l-88 -85 85 88 c79 81 90 92 90 84z m-1115 -47 c10 -11
16 -20 13 -20 -3 0 -13 9 -23 20 -10 11 -16 20 -13 20 3 0 13 -9 23 -20z
m-895 -15 c7 -8 10 -15 7 -15 -2 0 -10 7 -17 15 -7 8 -10 15 -7 15 2 0 10 -7
17 -15z m970 -60 c13 -14 21 -25 18 -25 -2 0 -15 11 -28 25 -13 14 -21 25 -18
25 2 0 15 -11 28 -25z m-905 -25 c10 -11 16 -20 13 -20 -3 0 -13 9 -23 20 -10
11 -16 20 -13 20 3 0 13 -9 23 -20z m1765 -33 c0 -1 -24 -25 -52 -52 l-53 -50
50 53 c46 48 55 57 55 49z m800 0 c0 -2 -10 -12 -22 -23 l-23 -19 19 23 c18
21 26 27 26 19z m-2470 -72 c19 -19 32 -35 29 -35 -3 0 -20 16 -39 35 -19 19
-32 35 -29 35 3 0 20 -16 39 -35z m1557 -31 c-3 -3 -12 -4 -19 -1 -8 3 -5 6 6
6 11 1 17 -2 13 -5z m-1492 -34 c10 -11 16 -20 13 -20 -3 0 -13 9 -23 20 -10
11 -16 20 -13 20 3 0 13 -9 23 -20z m1056 -3 c-10 -9 -11 -8 -5 6 3 10 9 15
12 12 3 -3 0 -11 -7 -18z m-976 -67 c10 -11 16 -20 13 -20 -3 0 -13 9 -23 20
-10 11 -16 20 -13 20 3 0 13 -9 23 -20z M916 6263 c-6 -14 -5 -15 5 -6 7 7 10
15 7 18 -3 3 -9 -2 -12 -12z M1170 5185 c7 -9 27 -25 44 -36 l31 -21 -30 26
c-16 15 -29 31 -27 36 1 6 -5 10 -14 10 -14 0 -14 -3 -4 -15z M1390 5026 c14
-8 36 -17 50 -20 21 -6 22 -5 7 4 -10 6 -14 16 -10 23 4 7 0 6 -10 -2 -9 -7
-17 -9 -17 -4 0 5 -10 9 -22 10 -22 2 -22 1 2 -11z M1470 5006 c0 -9 5 -16 10
-16 6 0 10 4 10 9 0 6 -4 13 -10 16 -5 3 -10 -1 -10 -9z M1519 4980 c38 -16
101 -29 101 -20 0 4 -15 10 -32 13 -18 3 -46 8 -63 12 -28 5 -28 5 -6 -5z
M1683 4953 c32 -2 81 -2 110 0 29 2 3 3 -58 3 -60 0 -84 -1 -52 -3z M3275
5111 c7 -12 -29 -33 -40 -23 -5 4 -5 1 -1 -6 7 -11 12 -11 29 1 24 16 34 37
17 37 -6 0 -9 -4 -5 -9z M3132 5024 c-14 -16 -5 -18 17 -5 7 5 9 11 5 14 -5 3
-15 -1 -22 -9z M3050 4990 c-9 -6 -10 -10 -3 -10 6 0 15 5 18 10 8 12 4 12
-15 0z M2738 4953 c23 -2 59 -2 80 0 20 2 1 4 -43 4 -44 0 -61 -2 -37 -4z
M2868 4953 c6 -2 18 -2 25 0 6 3 1 5 -13 5 -14 0 -19 -2 -12 -5z M2388 6983
c17 -2 47 -2 65 0 17 2 3 4 -33 4 -36 0 -50 -2 -32 -4z M2033 6973 c9 -2 23
-2 30 0 6 3 -1 5 -18 5 -16 0 -22 -2 -12 -5z M2503 6973 c9 -2 25 -2 35 0 9 3
1 5 -18 5 -19 0 -27 -2 -17 -5z M1912 6958 c-71 -16 -42 -19 34 -4 38 8 56 14
39 14 -16 0 -50 -5 -73 -10z M2580 6960 c14 -4 36 -8 50 -8 22 0 22 1 -5 8
-16 4 -39 8 -50 8 -16 0 -15 -2 5 -8z M2675 6940 c11 -5 29 -8 40 -8 16 0 15
2 -5 8 -34 11 -60 11 -35 0z M1815 6930 c-13 -5 -14 -9 -5 -9 8 0 24 4 35 9
13 5 14 9 5 9 -8 0 -24 -4 -35 -9z M2810 6907 c8 -8 204 -87 207 -83 2 2 -33
19 -79 38 -86 36 -137 54 -128 45z M2040 6360 c-6 -11 -15 -18 -20 -15 -6 3
-7 -1 -4 -9 8 -22 11 -20 29 14 9 17 13 30 11 30 -3 0 -10 -9 -16 -20z M1020
6349 c0 -5 5 -7 10 -4 6 3 10 8 10 11 0 2 -4 4 -10 4 -5 0 -10 -5 -10 -11z
M1832 6344 c10 -10 20 -16 22 -13 3 3 -5 11 -17 18 -21 13 -21 12 -5 -5z
M1875 6350 c3 -5 8 -10 11 -10 2 0 4 5 4 10 0 6 -5 10 -11 10 -5 0 -7 -4 -4
-10z M1900 6310 c0 -13 18 -22 24 -11 3 5 -1 11 -9 15 -8 3 -15 1 -15 -4z
M3048 6293 c6 -2 18 -2 25 0 6 3 1 5 -13 5 -14 0 -19 -2 -12 -5z M2810 6280
c0 -5 5 -10 11 -10 5 0 7 5 4 10 -3 6 -8 10 -11 10 -2 0 -4 -4 -4 -10z M1470
6271 c0 -6 4 -13 10 -16 6 -3 7 1 4 9 -7 18 -14 21 -14 7z M2571 6259 c5 -11
19 -18 32 -18 21 2 21 2 -2 6 -16 3 -20 7 -12 13 9 5 7 9 -8 13 -18 4 -19 2
-10 -14z M3090 6272 c0 -5 7 -12 15 -16 8 -3 15 -4 15 -2 0 2 -7 9 -15 16 -9
7 -15 8 -15 2z M1197 6243 c3 -7 6 -13 8 -13 2 0 5 6 8 13 3 8 -1 14 -8 14 -7
0 -11 -6 -8 -14z M3259 6244 c-24 -13 -23 -13 10 -9 38 4 48 10 28 18 -7 3
-24 -1 -38 -9z M2736 6237 c3 -10 9 -15 12 -12 3 3 0 11 -7 18 -10 9 -11 8 -5
-6z M2805 6230 c3 -5 11 -10 16 -10 6 0 7 5 4 10 -3 6 -11 10 -16 10 -6 0 -7
-4 -4 -10z M3555 6231 c-3 -5 -2 -12 3 -15 5 -3 9 1 9 9 0 17 -3 19 -12 6z
M3260 6210 c0 -5 5 -10 10 -10 6 0 10 5 10 10 0 6 -4 10 -10 10 -5 0 -10 -4
-10 -10z M48 5805 c2 -14 6 -25 7 -25 1 0 5 11 7 25 3 16 1 25 -7 25 -8 0 -10
-9 -7 -25z M5 5789 c-8 -12 -9 -12 34 -34 20 -10 30 -12 26 -4 -5 8 -4 10 3 5
18 -11 15 -39 -3 -32 -22 8 -18 -2 5 -14 11 -6 20 -7 19 -3 -3 19 2 33 12 33
5 0 7 -5 3 -11 -7 -11 12 -29 31 -29 6 1 2 5 -8 11 -15 9 -16 13 -5 27 8 9 8
13 1 9 -6 -4 -13 -2 -15 5 -2 6 -15 13 -29 15 -13 2 -29 10 -35 18 -13 18 -30
19 -39 4z M0 5709 c0 -5 4 -8 9 -4 6 3 14 -3 20 -12 9 -16 10 -16 11 5 0 15
-6 22 -20 22 -11 0 -20 -5 -20 -11z M5 5679 c-4 -6 -5 -12 -2 -15 2 -3 7 2 10
11 7 17 1 20 -8 4z M87 5667 c-3 -8 -1 -20 4 -28 6 -10 9 -7 9 14 0 29 -5 35
-13 14z M86 5591 c-4 -7 -5 -15 -2 -18 9 -9 19 4 14 18 -4 11 -6 11 -12 0z
M75 5530 c3 -5 11 -10 16 -10 6 0 7 5 4 10 -3 6 -11 10 -16 10 -6 0 -7 -4 -4
-10z M46 5495 c4 -8 7 -15 9 -15 2 0 5 7 9 15 3 9 0 15 -9 15 -9 0 -12 -6 -9
-15z M80 5499 c0 -5 5 -7 10 -4 6 3 10 8 10 11 0 2 -4 4 -10 4 -5 0 -10 -5
-10 -11z M3950 5479 c0 -5 5 -7 10 -4 6 3 10 8 10 11 0 2 -4 4 -10 4 -5 0 -10
-5 -10 -11z M30 5465 c0 -16 16 -20 24 -6 3 5 -1 11 -9 15 -9 3 -15 0 -15 -9z
M85 5470 c-3 -5 -1 -10 4 -10 6 0 11 5 11 10 0 6 -2 10 -4 10 -3 0 -8 -4 -11
-10z M522 5165 c4 -5 3 -14 -4 -22 -16 -20 -3 -27 21 -11 20 14 20 14 -2 27
-12 8 -19 10 -15 6z M418 5153 c7 -3 16 -2 19 1 4 3 -2 6 -13 5 -11 0 -14 -3
-6 -6z"/>
</g>
</svg>
